<?xml version="1.0" encoding="UTF-8" standalone="no"?>
<!-- Created with Inkscape (http://www.inkscape.org/) -->

<svg
   xmlns:dc="http://purl.org/dc/elements/1.1/"
   xmlns:cc="http://creativecommons.org/ns#"
   xmlns:rdf="http://www.w3.org/1999/02/22-rdf-syntax-ns#"
   xmlns:svg="http://www.w3.org/2000/svg"
   xmlns="http://www.w3.org/2000/svg"
   xmlns:sodipodi="http://sodipodi.sourceforge.net/DTD/sodipodi-0.dtd"
   xmlns:inkscape="http://www.inkscape.org/namespaces/inkscape"
   width="210mm"
   height="210mm"
   viewBox="0 0 744.09449 744.09448"
   id="svg2"
   version="1.1"
   inkscape:version="0.92.2 (5c3e80d, 2017-08-06)"
   sodipodi:docname="logo.svg"
   inkscape:export-filename="C:\Projets\TicketResto\TicketResto.PhoneApp\Assets\StoreLogo.scale-240.png"
   inkscape:export-xdpi="14.51"
   inkscape:export-ydpi="14.51">
  <defs
     id="defs4" />
  <sodipodi:namedview
     id="base"
     pagecolor="#ffffff"
     bordercolor="#666666"
     borderopacity="1.0"
     inkscape:pageopacity="0.0"
     inkscape:pageshadow="2"
     inkscape:zoom="0.7"
     inkscape:cx="-82.466413"
     inkscape:cy="545.51385"
     inkscape:document-units="px"
     inkscape:current-layer="layer1"
     showgrid="false"
     inkscape:window-width="1920"
     inkscape:window-height="1057"
     inkscape:window-x="1912"
     inkscape:window-y="-8"
     inkscape:window-maximized="1"
     inkscape:pagecheckerboard="true" />
  <metadata
     id="metadata7">
    <rdf:RDF>
      <cc:Work
         rdf:about="">
        <dc:format>image/svg+xml</dc:format>
        <dc:type
           rdf:resource="http://purl.org/dc/dcmitype/StillImage" />
        <dc:title />
      </cc:Work>
    </rdf:RDF>
  </metadata>
  <g
     inkscape:label="Calque 1"
     inkscape:groupmode="layer"
     id="layer1"
     transform="translate(0,-308.26772)">
    <path
       style="fill:#64649e;fill-opacity:1;fill-rule:nonzero;stroke:none;stroke-width:5.0897646;stroke-miterlimit:4;stroke-dasharray:none;stroke-opacity:1"
       d="m 327.00258,1032.921 c -2.79198,-0.2187 -12.9444,-0.9408 -22.56103,-1.6047 -84.81164,-5.8551 -152.09138,-24.4875 -163.04133,-45.15225 -6.87305,-12.9709 5.72264,-25.81857 36.08014,-36.80186 28.60095,-10.34779 72.67075,-18.11809 129.2173,-22.78333 27.01816,-2.22909 121.02763,-1.87322 147.77473,0.55939 65.95037,5.998 110.95852,15.43487 137.51452,28.83264 11.96754,6.03775 17.52467,10.4282 20.56792,16.24975 13.42905,25.68926 -47.09923,48.65546 -154.69819,58.69666 -17.36519,1.6208 -116.38487,3.1368 -130.85406,2.0037 z m 30.4574,-143.19364 c -41.29691,-2.81833 -84.44253,-15.30861 -119.92422,-34.71689 -24.63922,-13.47747 -45.24238,-28.9952 -65.68811,-49.47454 -42.6853,-42.7554 -67.84147,-91.5386 -78.546161,-152.31806 -3.369515,-19.13152 -3.704256,-63.68788 -0.619178,-82.41869 8.702829,-52.83846 28.429329,-96.86632 61.228889,-136.65737 10.10865,-12.26345 33.95366,-35.10314 46.74954,-44.77861 83.55135,-63.17619 194.7851,-76.68688 290.47344,-35.2814 12.88874,5.57716 32.05639,16.04486 36.54367,19.95703 2.1066,1.8367 4.18757,3.12394 4.62429,2.86054 0.43656,-0.26335 1.46385,0.74276 2.28255,2.23577 0.8187,1.49308 2.11007,2.7147 2.8695,2.7147 0.75941,0 1.67477,0.74768 2.03409,1.66152 0.35931,0.91384 1.11958,1.53305 1.68943,1.37609 0.92444,-0.2546 8.326,5.47723 15.4737,11.98277 1.42617,1.29813 2.95851,2.04122 3.4053,1.65134 0.44662,-0.38991 0.5111,0.11246 0.14358,1.11669 -0.47506,1.29668 0.12635,2.02038 2.07632,2.49794 1.5098,0.36982 2.74499,1.32657 2.74499,2.12603 0,0.79951 1.26907,2.0179 2.8201,2.70763 1.55111,0.68972 2.82025,2.00771 2.82025,2.92892 0,0.92121 0.44906,1.67496 0.99809,1.67496 1.40808,0 -198.81065,197.00123 -195.05496,201.96252 1.71428,2.26469 -0.92374,0.34612 -0.35691,0.004 0.56682,-0.34184 2.24707,-1.70966 2.11484,-1.21052 -0.42697,1.6105 -7.37346,-1.43891 -3.86607,1.23813 1.87427,1.43047 4.06323,-1.553 19.83551,-12.08356 26.66313,-17.80189 -21.01618,12.75097 -20.47105,12.75097 0.54516,0 241.14892,-157.14657 241.91664,-155.33777 0.76775,1.80877 1.84454,3.01801 2.39296,2.68719 0.54837,-0.33075 1.06061,-0.0767 1.13819,0.56445 0.0773,0.64125 0.20432,1.67933 0.28199,2.30693 0.0776,0.62757 0.69954,1.49451 1.38247,1.92655 1.86847,1.18228 6.50599,8.74912 12.74877,20.8019 20.147,38.89705 29.58854,78.38898 29.56144,123.649 -0.027,44.39346 -9.28892,83.75069 -28.90904,122.83921 -36.2385,72.19727 -103.357,126.11855 -183.28645,147.24786 -28.18925,7.45185 -64.05168,10.82496 -93.62824,8.80652 z"
       id="path3347"
       inkscape:connector-curvature="0"
       sodipodi:nodetypes="sssssssssscsssssssscssccccccscsscccssssccccscsscc" />
  </g>
</svg>
