<?xml version="1.0" encoding="UTF-8" standalone="no"?>
<!-- Created with Inkscape (http://www.inkscape.org/) -->

<svg
   xmlns:dc="http://purl.org/dc/elements/1.1/"
   xmlns:cc="http://creativecommons.org/ns#"
   xmlns:rdf="http://www.w3.org/1999/02/22-rdf-syntax-ns#"
   xmlns:svg="http://www.w3.org/2000/svg"
   xmlns="http://www.w3.org/2000/svg"
   xmlns:sodipodi="http://sodipodi.sourceforge.net/DTD/sodipodi-0.dtd"
   xmlns:inkscape="http://www.inkscape.org/namespaces/inkscape"
   width="210mm"
   height="210mm"
   viewBox="0 0 744.09449 744.09448"
   id="svg2"
   version="1.1"
   inkscape:version="0.92.2 (5c3e80d, 2017-08-06)"
   sodipodi:docname="logo.svg"
   inkscape:export-filename="C:\Projets\TicketResto\TicketResto.PhoneApp\Assets\StoreLogo.scale-240.png"
   inkscape:export-xdpi="14.51"
   inkscape:export-ydpi="14.51">
  <defs
     id="defs4" />
  <sodipodi:namedview
     id="base"
     pagecolor="#ffffff"
     bordercolor="#666666"
     borderopacity="1.0"
     inkscape:pageopacity="0.0"
     inkscape:pageshadow="2"
     inkscape:zoom="0.7"
     inkscape:cx="190.39073"
     inkscape:cy="545.51385"
     inkscape:document-units="px"
     inkscape:current-layer="layer1"
     showgrid="false"
     inkscape:window-width="944"
     inkscape:window-height="1041"
     inkscape:window-x="2880"
     inkscape:window-y="0"
     inkscape:window-maximized="0"
     inkscape:pagecheckerboard="true" />
  <metadata
     id="metadata7">
    <rdf:RDF>
      <cc:Work
         rdf:about="">
        <dc:format>image/svg+xml</dc:format>
        <dc:type
           rdf:resource="http://purl.org/dc/dcmitype/StillImage" />
        <dc:title />
      </cc:Work>
    </rdf:RDF>
  </metadata>
  <g
     inkscape:label="Calque 1"
     inkscape:groupmode="layer"
     id="layer1"
     transform="translate(0,-308.26772)">
    <path
       style="fill:#64649e;fill-opacity:1;fill-rule:nonzero;stroke:none;stroke-width:4.17128801;stroke-miterlimit:4;stroke-dasharray:none;stroke-opacity:1"
       d="m 336.01065,982.69255 c -2.28813,-0.17918 -10.60852,-0.77096 -18.48977,-1.31505 -69.50691,-4.79853 -124.64567,-20.06852 -133.61961,-37.00427 -5.63278,-10.63021 4.68995,-21.15945 29.56927,-30.16075 23.43977,-8.48049 59.55692,-14.84859 105.89933,-18.67195 22.14256,-1.82683 99.18753,-1.53519 121.10797,0.45843 54.04926,4.91565 90.93543,12.64956 112.69924,23.62965 9.80792,4.9482 14.36226,8.54636 16.85634,13.31739 11.00572,21.05345 -38.59992,39.87521 -126.78205,48.10468 -14.23154,1.32812 -95.38257,2.57057 -107.24072,1.64187 z m 24.96121,-117.35347 c -33.84467,-2.30976 -69.20444,-12.54609 -98.28325,-28.45202 -20.19293,-11.0454 -37.07813,-23.76287 -53.83434,-40.54658 -34.98248,-35.03996 -55.59908,-75.01998 -64.37205,-124.83146 -2.76148,-15.67912 -3.0358,-52.19504 -0.50744,-67.54577 7.13233,-43.30345 23.2991,-79.38624 50.17978,-111.99678 8.28449,-10.05045 27.82654,-28.7686 38.31333,-36.69807 68.47403,-51.77569 159.63506,-62.84829 238.05589,-28.91468 10.56293,4.57073 26.27166,13.1495 29.94918,16.3557 1.72648,1.50523 3.4319,2.56019 3.78981,2.34434 0.35779,-0.21584 1.19968,0.6087 1.87065,1.83232 0.67097,1.22364 1.7293,2.22479 2.35167,2.22479 0.62239,0 1.37255,0.61275 1.66704,1.36169 0.29448,0.74893 0.91754,1.25643 1.38458,1.12777 0.75761,-0.20865 6.82351,4.48883 12.68135,9.82041 1.16883,1.06388 2.42465,1.67288 2.7908,1.35334 0.36603,-0.31954 0.41886,0.0923 0.11768,0.91518 -0.38932,1.06269 0.10354,1.6558 1.70166,2.0472 1.23732,0.30306 2.24962,1.08714 2.24962,1.74236 0,0.65523 1.04007,1.65378 2.3112,2.21903 1.2712,0.56523 2.31132,1.6454 2.31132,2.40037 0,0.75496 0.36802,1.37268 0.81797,1.37268 1.15401,0 -162.93417,161.4513 -159.85619,165.51729 1.40493,1.85601 -0.75708,0.28366 -0.29253,0.004 0.46454,-0.28017 1.84159,-1.40114 1.7332,-0.99208 -0.34992,1.31986 -6.04285,-1.17924 -3.16839,1.01467 1.53604,1.17236 3.32997,-1.27272 16.25609,-9.90298 21.8516,-14.58944 -17.22372,10.45 -16.77696,10.45 0.44678,0 197.63227,-128.7886 198.26147,-127.30624 0.6292,1.48238 1.51167,2.4734 1.96114,2.20231 0.44937,-0.27108 0.8692,-0.0629 0.93277,0.46257 0.0635,0.52552 0.16747,1.37628 0.23112,1.89062 0.0635,0.51433 0.5733,1.22482 1.13298,1.57889 1.53131,0.96894 5.33195,7.17031 10.44818,17.04809 16.51138,31.87787 24.24915,64.24328 24.22694,101.33587 -0.0223,36.3824 -7.61269,68.6374 -23.69227,100.6722 -29.69906,59.16887 -84.70566,103.35974 -150.21138,120.67616 -23.10235,6.1071 -52.4932,8.87154 -76.7325,7.21732 z"
       id="path3347"
       inkscape:connector-curvature="0"
       sodipodi:nodetypes="sssssssssscsssssssscssccccccscsscccssssccccscsscc" />
  </g>
</svg>
